# extracted from table.usdz
v -0.874728 1.229361 -0.000000
v 0.874728 1.229361 -0.000000
v 0.874728 0.619361 -0.000000
v -0.874728 0.619361 -0.000000
v -0.874728 0.619361 0.560054
v 0.874728 0.619361 0.560054
v -0.874728 1.229361 0.560054
v 0.874728 1.229361 0.560054
v 0.874728 1.229361 0.560054
v 0.874728 0.619361 0.560054
v 0.874728 0.619361 -0.000000
v 0.874728 1.229361 -0.000000
v -0.874728 0.619361 0.560054
v -0.874728 1.229361 0.560054
v -0.874728 1.229361 -0.000000
v -0.874728 0.619361 -0.000000
v -0.862000 0.619361 0.012728
v 0.862000 0.619361 0.012728
v -0.862000 1.229361 0.012728
v 0.862000 1.229361 0.012728
v 0.862000 0.619361 0.547326
v -0.862000 1.229361 0.547326
v 0.862000 1.229361 0.547326
v -0.862000 0.619361 0.547326
v 0.862000 0.619361 0.547326
v 0.862000 1.229361 0.547326
v 0.862000 0.619361 0.012728
v 0.862000 1.229361 0.012728
v -0.862000 1.229361 0.547326
v -0.862000 0.619361 0.547326
v -0.862000 1.229361 0.012728
v -0.862000 0.619361 0.012728
v -0.862000 0.924339 0.012728
v 0.862000 0.924339 0.012728
v 0.862000 0.487092 0.012728
v -0.862000 0.487092 0.012728
v -0.862000 0.487092 0.547326
v 0.862000 0.924339 0.547326
v -0.862000 0.924339 0.547326
v 0.862000 0.487092 0.547326
v 0.862000 0.924339 0.547326
v 0.862000 0.487092 0.547326
v 0.862000 0.487092 0.012728
v 0.862000 0.924339 0.012728
v -0.862000 0.924339 0.547326
v -0.862000 0.487092 0.012728
v -0.862000 0.487092 0.547326
v -0.862000 0.924339 0.012728
v -0.849272 0.487092 0.025456
v 0.849272 0.487092 0.025456
v -0.849272 0.924339 0.025456
v 0.849272 0.924339 0.025456
v 0.849272 0.924339 0.534598
v -0.849272 0.487092 0.534598
v -0.849272 0.924339 0.534598
v 0.849272 0.487092 0.534598
v 0.849272 0.487092 0.534598
v 0.849272 0.924339 0.534598
v 0.849272 0.487092 0.025456
v 0.849272 0.924339 0.025456
v -0.862000 0.487090 0.287162
v 0.009000 0.487090 0.287162
v 0.009000 0.469090 0.287162
v -0.862000 0.469090 0.287162
v -0.862000 0.469090 0.547326
v 0.009000 0.469090 0.547326
v -0.862000 0.487090 0.547326
v 0.009000 0.487090 0.547326
v 0.009000 0.469090 0.547326
v 0.009000 0.469090 0.287162
v 0.009000 0.487090 0.547326
v 0.009000 0.487090 0.287162
v -0.862000 0.487090 0.547326
v -0.862000 0.487090 0.287162
v -0.862000 0.469090 0.547326
v -0.862000 0.469090 0.287162
v 0.009000 0.469090 0.547326
v -0.862000 0.469090 0.547326
v -0.862000 0.469090 0.287162
v 0.009000 0.469090 0.287162
v 0.855989 0.487369 0.289055
v -0.855250 0.487369 0.289056
v -0.855250 0.487369 0.271056
v 0.855989 0.487369 0.271055
v 0.855989 0.924361 0.271055
v -0.855250 0.487369 0.271056
v -0.855250 0.924361 0.271056
v 0.855989 0.487369 0.271055
v 0.855989 0.924361 0.289055
v -0.855250 0.924361 0.289056
v -0.855250 0.487369 0.289056
v 0.855989 0.487369 0.289055
v 0.863098 1.224843 0.383756
v -0.863363 1.224843 0.365756
v -0.863363 1.224843 0.383756
v 0.863098 1.224843 0.365756
v -0.863363 1.224843 0.383756
v 0.863098 0.924399 0.383756
v 0.863098 1.224843 0.383756
v -0.863363 0.924399 0.383756
v 0.863098 0.924399 0.365756
v -0.863363 1.224843 0.365756
v 0.863098 1.224843 0.365756
v -0.863363 0.924399 0.365756
v -0.862000 0.487090 0.012727
v 0.009000 0.487090 0.012727
v 0.009000 0.469090 0.012727
v -0.862000 0.469090 0.012727
v -0.862000 0.469090 0.272892
v 0.009000 0.469090 0.272892
v -0.862000 0.487090 0.272892
v 0.009000 0.487090 0.272892
v 0.009000 0.469090 0.272892
v 0.009000 0.469090 0.012727
v 0.009000 0.487090 0.272892
v 0.009000 0.487090 0.012727
v -0.862000 0.487090 0.272892
v -0.862000 0.487090 0.012727
v -0.862000 0.469090 0.272892
v -0.862000 0.469090 0.012727
v 0.009000 0.469090 0.272892
v -0.862000 0.469090 0.272892
v -0.862000 0.469090 0.012727
v 0.009000 0.469090 0.012727
v -0.009000 0.487092 0.025456
v -0.009000 0.924361 0.025456
v 0.009000 0.487092 0.025456
v 0.009000 0.924361 0.025456
v -0.009000 0.924361 0.534602
v -0.009000 0.487092 0.534602
v 0.009000 0.487092 0.534602
v 0.009000 0.924361 0.534602
v 0.009000 0.487092 0.534602
v 0.009000 0.924361 0.025456
v 0.009000 0.924361 0.534602
v 0.009000 0.487092 0.025456
v 0.009000 0.924361 0.534602
v 0.009000 0.924361 0.025456
v -0.009000 0.924361 0.534602
v -0.009000 0.924361 0.025456
v -0.009000 0.487092 0.534602
v 0.009000 0.487092 0.025456
v 0.009000 0.487092 0.534602
v -0.009000 0.487092 0.025456
v 0.075503 -1.119361 0.679999
v 0.075502 0.770639 0.679999
v 0.875502 -1.119361 0.679999
v 0.875502 0.770639 0.679999
v 0.075502 0.770639 0.749999
v 0.075503 -1.119361 0.749999
v 0.875502 -1.119361 0.749999
v 0.875502 0.770639 0.749999
v 0.875502 0.770639 0.749999
v 0.875502 -1.119361 0.749999
v 0.875502 -1.119361 0.679999
v 0.875502 0.770639 0.679999
v 0.875502 0.770639 0.749999
v 0.075502 0.770639 0.679999
v 0.075502 0.770639 0.749999
v 0.875502 0.770639 0.679999
v 0.075503 -1.119361 0.749999
v 0.075502 0.770639 0.749999
v 0.075502 0.770639 0.679999
v 0.075503 -1.119361 0.679999
v 0.535329 0.752639 0.679999
v 0.535329 0.752639 0.560054
v 0.535329 0.770639 0.679999
v 0.535329 0.770639 0.560054
v 0.535329 0.770639 0.679999
v 0.415676 0.770639 0.560054
v 0.415676 0.770639 0.679999
v 0.535329 0.770639 0.560054
v 0.415676 0.770639 0.679999
v 0.415676 0.770639 0.560054
v 0.415676 0.752639 0.679999
v 0.415676 0.752639 0.560054
v 0.535329 0.752639 0.679999
v 0.415676 0.752639 0.679999
v 0.415676 0.752639 0.560054
v 0.535329 0.752639 0.560054
v 0.862775 -1.119360 0.679999
v 0.088231 -1.229361 0.679999
v 0.088231 -1.119360 0.679999
v 0.862775 -1.229361 0.679999
v 0.088231 -1.229361 0.737271
v 0.862775 -1.229361 0.679999
v 0.862775 -1.229361 0.737271
v 0.088231 -1.229361 0.679999
v 0.875503 -1.119361 -0.000000
v 0.075503 -1.229361 -0.000000
v 0.075503 -1.119361 -0.000000
v 0.875503 -1.229361 -0.000000
v 0.075503 -1.229361 0.749999
v 0.875503 -1.229361 0.749999
v 0.075503 -1.119361 0.749999
v 0.875503 -1.119361 0.749999
v 0.875503 -1.229361 0.749999
v 0.875503 -1.229361 -0.000000
v 0.875503 -1.119361 0.749999
v 0.875503 -1.119361 -0.000000
v 0.075503 -1.119361 0.749999
v 0.075503 -1.119361 -0.000000
v 0.075503 -1.229361 0.749999
v 0.075503 -1.229361 -0.000000
v 0.088231 -1.229361 0.012728
v 0.862775 -1.119361 0.012728
v 0.088231 -1.119361 0.012728
v 0.862775 -1.229361 0.012728
v 0.862775 -1.229361 0.737271
v 0.088231 -1.119361 0.737271
v 0.862775 -1.119361 0.737271
v 0.088231 -1.229361 0.737271
v 0.862775 -1.229361 0.012728
v 0.862775 -1.229361 0.737271
v 0.862775 -1.119361 0.737271
v 0.862775 -1.119361 0.012728
v 0.088231 -1.119361 0.012728
v 0.088231 -1.119361 0.737271
v 0.088231 -1.229361 0.737271
v 0.088231 -1.229361 0.012728
v -0.869294 0.933306 0.007661
v 0.868265 0.933306 0.007661
v 0.868265 0.915306 0.007661
v -0.869294 0.915306 0.007661
v -0.869294 0.915306 0.553234
v 0.868265 0.915306 0.553233
v -0.869294 0.933306 0.553234
v 0.868265 0.933306 0.553233
v 0.868265 0.915306 0.553233
v 0.868265 0.915306 0.007661
v 0.868265 0.933306 0.553233
v 0.868265 0.933306 0.007661
v 0.868265 0.933306 0.553233
v -0.869294 0.933306 0.007661
v -0.869294 0.933306 0.553234
v 0.868265 0.933306 0.007661
v -0.869294 0.933306 0.553234
v -0.869294 0.933306 0.007661
v -0.869294 0.915306 0.553234
v -0.869294 0.915306 0.007661
v 0.868265 0.915306 0.553233
v -0.869294 0.915306 0.553234
v -0.869294 0.915306 0.007661
v 0.868265 0.915306 0.007661
v -0.874728 0.619361 -0.000000
v 0.874728 0.619361 -0.000000
v 0.862000 0.619361 0.012728
v 0.874728 0.619361 0.560054
v -0.862000 0.619361 0.012728
v 0.862000 0.619361 0.547326
v -0.874728 0.619361 0.560054
v -0.862000 0.619361 0.547326
v 0.874728 1.229361 -0.000000
v -0.874728 1.229361 -0.000000
v -0.862000 1.229361 0.012728
v -0.874728 1.229361 0.560054
v 0.862000 1.229361 0.012728
v -0.862000 1.229361 0.547326
v 0.874728 1.229361 0.560054
v 0.862000 1.229361 0.547326
v 0.862000 0.487092 0.012728
v -0.849272 0.487092 0.025456
v -0.862000 0.487092 0.012728
v -0.862000 0.487092 0.547326
v 0.849272 0.487092 0.025456
v -0.849272 0.487092 0.534598
v 0.862000 0.487092 0.547326
v 0.849272 0.487092 0.534598
v 0.862000 0.924339 0.012728
v -0.862000 0.924339 0.012728
v -0.849272 0.924339 0.025456
v -0.862000 0.924339 0.547326
v 0.849272 0.924339 0.025456
v -0.849272 0.924339 0.534598
v 0.862000 0.924339 0.547326
v 0.849272 0.924339 0.534598
v 0.875503 -1.229361 -0.000000
v 0.088231 -1.229361 0.012728
v 0.075503 -1.229361 -0.000000
v 0.075503 -1.229361 0.749999
v 0.862775 -1.229361 0.012728
v 0.088231 -1.229361 0.737271
v 0.875503 -1.229361 0.749999
v 0.862775 -1.229361 0.737271
v 0.875503 -1.119361 -0.000000
v 0.075503 -1.119361 -0.000000
v 0.088231 -1.119361 0.012728
v 0.075503 -1.119361 0.749999
v 0.862775 -1.119361 0.012728
v 0.088231 -1.119361 0.737271
v 0.875503 -1.119361 0.749999
v 0.862775 -1.119361 0.737271
vn -0.000000 0.000000 -1.000000
vn -0.000000 -0.000000 -1.000000
vn -0.000000 -0.000000 -1.000000
vn -0.000000 -0.000000 -1.000000
vn -0.000000 0.000000 -1.000000
vn -0.000000 0.000000 -1.000000
vn 0.000000 0.000000 1.000000
vn 0.000000 0.000000 1.000000
vn 0.000000 0.000000 1.000000
vn 0.000000 0.000000 1.000000
vn 0.000000 0.000000 1.000000
vn 0.000000 0.000000 1.000000
vn 1.000000 0.000000 -0.000000
vn 1.000000 0.000000 0.000000
vn 1.000000 0.000000 -0.000000
vn 1.000000 0.000000 -0.000000
vn 1.000000 0.000000 -0.000000
vn 1.000000 0.000000 -0.000000
vn -1.000000 -0.000000 0.000000
vn -1.000000 0.000000 0.000000
vn -1.000000 -0.000000 0.000000
vn -1.000000 -0.000000 0.000000
vn -1.000000 -0.000000 0.000000
vn -1.000000 -0.000000 0.000000
vn 0.000000 0.000000 1.000000
vn 0.000000 0.000000 1.000000
vn 0.000000 0.000000 1.000000
vn 0.000000 0.000000 1.000000
vn 0.000000 0.000000 1.000000
vn 0.000000 0.000000 1.000000
vn -0.000000 0.000000 -1.000000
vn -0.000000 0.000000 -1.000000
vn -0.000000 0.000000 -1.000000
vn -0.000000 0.000000 -1.000000
vn -0.000000 0.000000 -1.000000
vn -0.000000 0.000000 -1.000000
vn -1.000000 0.000000 0.000000
vn -1.000000 0.000000 0.000000
vn -1.000000 0.000000 0.000000
vn -1.000000 0.000000 0.000000
vn -1.000000 0.000000 0.000000
vn -1.000000 0.000000 0.000000
vn 1.000000 0.000000 -0.000000
vn 1.000000 0.000000 -0.000000
vn 1.000000 0.000000 -0.000000
vn 1.000000 0.000000 -0.000000
vn 1.000000 0.000000 0.000000
vn 1.000000 0.000000 -0.000000
vn -0.000000 -0.000000 -1.000000
vn -0.000000 -0.000000 -1.000000
vn -0.000000 -0.000000 -1.000000
vn -0.000000 -0.000000 -1.000000
vn -0.000000 -0.000000 -1.000000
vn -0.000000 -0.000000 -1.000000
vn 0.000000 0.000000 1.000000
vn 0.000000 0.000000 1.000000
vn 0.000000 0.000000 1.000000
vn 0.000000 0.000000 1.000000
vn 0.000000 0.000000 1.000000
vn 0.000000 0.000000 1.000000
vn 1.000000 0.000000 -0.000000
vn 1.000000 0.000000 -0.000000
vn 1.000000 0.000000 -0.000000
vn 1.000000 0.000000 -0.000000
vn 1.000000 0.000000 -0.000000
vn 1.000000 0.000000 -0.000000
vn -1.000000 -0.000000 0.000000
vn -1.000000 -0.000000 0.000000
vn -1.000000 -0.000000 0.000000
vn -1.000000 -0.000000 0.000000
vn -1.000000 -0.000000 0.000000
vn -1.000000 -0.000000 0.000000
vn 0.000000 0.000000 1.000000
vn 0.000000 0.000000 1.000000
vn 0.000000 0.000000 1.000000
vn 0.000000 0.000000 1.000000
vn 0.000000 0.000000 1.000000
vn 0.000000 0.000000 1.000000
vn -0.000000 -0.000000 -1.000000
vn -0.000000 -0.000000 -1.000000
vn -0.000000 -0.000000 -1.000000
vn -0.000000 -0.000000 -1.000000
vn -0.000000 -0.000000 -1.000000
vn -0.000000 -0.000000 -1.000000
vn -1.000000 -0.000000 0.000000
vn -1.000000 -0.000000 0.000000
vn -1.000000 -0.000000 0.000000
vn -1.000000 -0.000000 0.000000
vn -1.000000 -0.000001 0.000000
vn -1.000000 -0.000000 0.000000
vn -0.000000 0.000000 -1.000000
vn -0.000000 0.000000 -1.000000
vn -0.000000 0.000000 -1.000000
vn -0.000000 0.000000 -1.000000
vn -0.000000 0.000000 -1.000000
vn -0.000000 0.000000 -1.000000
vn 0.000000 0.000000 1.000000
vn 0.000000 0.000000 1.000000
vn 0.000000 0.000000 1.000000
vn 0.000000 0.000000 1.000000
vn 0.000000 0.000000 1.000000
vn 0.000000 0.000000 1.000000
vn 1.000000 0.000000 -0.000000
vn 1.000000 0.000000 -0.000000
vn 1.000000 0.000000 -0.000000
vn 1.000000 0.000000 -0.000000
vn 1.000000 0.000000 -0.000000
vn 1.000000 0.000000 -0.000000
vn -1.000000 0.000000 0.000000
vn -1.000000 0.000000 0.000000
vn -1.000000 0.000000 0.000000
vn -1.000000 0.000000 0.000000
vn -1.000000 0.000000 0.000000
vn -1.000000 0.000000 0.000000
vn 0.000000 -1.000000 0.000000
vn 0.000000 -1.000000 0.000000
vn 0.000000 -1.000000 0.000000
vn 0.000000 -1.000000 0.000000
vn 0.000000 -1.000000 0.000000
vn 0.000000 -1.000000 0.000000
vn 0.000000 -1.000000 0.000000
vn 0.000000 -1.000000 0.000000
vn 0.000000 -1.000000 0.000000
vn 0.000000 -1.000000 0.000000
vn 0.000000 -1.000000 0.000000
vn 0.000000 -1.000000 0.000000
vn -0.000000 -0.000000 -1.000000
vn -0.000000 -0.000000 -1.000000
vn -0.000000 0.000000 -1.000000
vn -0.000000 -0.000000 -1.000000
vn -0.000000 -0.000000 -1.000000
vn -0.000000 -0.000000 -1.000000
vn 0.000000 0.000000 1.000000
vn 0.000000 0.000000 1.000000
vn 0.000000 0.000000 1.000000
vn 0.000000 0.000000 1.000000
vn 0.000000 0.000000 1.000000
vn 0.000000 0.000000 1.000000
vn -0.000000 1.000000 0.000000
vn -0.000000 1.000000 0.000000
vn -0.000000 1.000000 0.000000
vn -0.000000 1.000000 0.000000
vn -0.000000 1.000000 0.000000
vn -0.000000 1.000000 0.000000
vn 0.000000 0.000000 1.000000
vn 0.000000 0.000000 1.000000
vn 0.000000 0.000000 1.000000
vn 0.000000 0.000000 1.000000
vn 0.000000 0.000000 1.000000
vn 0.000000 0.000000 1.000000
vn -0.000000 0.000000 -1.000000
vn -0.000000 0.000000 -1.000000
vn -0.000000 0.000000 -1.000000
vn -0.000000 0.000000 -1.000000
vn -0.000000 0.000000 -1.000000
vn -0.000000 0.000000 -1.000000
vn -0.000000 0.000000 -1.000000
vn -0.000000 0.000000 -1.000000
vn -0.000000 0.000000 -1.000000
vn -0.000000 0.000000 -1.000000
vn -0.000000 0.000000 -1.000000
vn -0.000000 0.000000 -1.000000
vn 0.000000 0.000000 1.000000
vn 0.000000 0.000000 1.000000
vn 0.000000 0.000000 1.000000
vn 0.000000 0.000000 1.000000
vn 0.000000 0.000000 1.000000
vn 0.000000 0.000000 1.000000
vn 1.000000 0.000000 -0.000000
vn 1.000000 0.000000 -0.000000
vn 1.000000 0.000000 -0.000000
vn 1.000000 0.000000 -0.000000
vn 1.000000 0.000000 -0.000000
vn 1.000000 0.000000 -0.000000
vn -1.000000 0.000000 0.000000
vn -1.000000 0.000000 0.000000
vn -1.000000 0.000000 0.000000
vn -1.000000 0.000000 0.000000
vn -1.000000 0.000000 0.000000
vn -1.000000 0.000000 0.000000
vn 0.000000 -1.000000 0.000000
vn 0.000000 -1.000000 0.000000
vn 0.000000 -1.000000 0.000000
vn 0.000000 -1.000000 0.000000
vn 0.000000 -1.000000 0.000000
vn 0.000000 -1.000000 0.000000
vn 0.000000 -0.000000 -1.000000
vn 0.000002 0.000000 -1.000000
vn 0.000000 -0.000000 -1.000000
vn 0.000002 0.000000 -1.000000
vn 0.000000 -0.000000 -1.000000
vn 0.000002 0.000000 -1.000000
vn 0.000000 0.000000 1.000000
vn 0.000000 0.000000 1.000000
vn 0.000000 0.000000 1.000000
vn 0.000000 0.000000 1.000000
vn 0.000000 0.000000 1.000000
vn 0.000000 0.000000 1.000000
vn 1.000000 0.000000 -0.000000
vn 1.000000 0.000000 -0.000000
vn 1.000000 0.000000 -0.000000
vn 1.000000 0.000000 -0.000000
vn 1.000000 0.000000 -0.000000
vn 1.000000 0.000000 -0.000000
vn 0.000000 1.000000 0.000000
vn 0.000000 1.000000 0.000000
vn 0.000000 1.000000 0.000000
vn 0.000000 1.000000 0.000000
vn 0.000000 1.000000 0.000000
vn 0.000000 1.000000 0.000000
vn 0.000000 -1.000000 -0.000000
vn 0.000000 -1.000000 0.000000
vn 0.000000 -1.000000 -0.000000
vn 0.000000 -1.000000 0.000000
vn 0.000000 -1.000000 -0.000000
vn 0.000000 -1.000000 0.000000
vn -0.000000 -0.000000 -1.000000
vn -0.000000 -0.000000 -1.000000
vn -0.000000 -0.000000 -1.000000
vn -0.000000 -0.000000 -1.000000
vn -0.000000 -0.000000 -1.000000
vn -0.000000 -0.000000 -1.000000
vn 0.000000 0.000000 1.000000
vn 0.000000 0.000000 1.000000
vn 0.000000 0.000000 1.000000
vn 0.000000 0.000000 1.000000
vn 0.000000 0.000000 1.000000
vn 0.000000 0.000000 1.000000
vn 1.000000 0.000000 0.000000
vn 1.000000 0.000000 0.000000
vn 1.000000 0.000000 0.000000
vn 1.000000 0.000000 0.000000
vn 1.000000 0.000000 0.000000
vn 1.000000 0.000000 0.000000
vn -0.000000 1.000000 -0.000000
vn -0.000000 1.000000 -0.000000
vn -0.000000 1.000000 -0.000000
vn -0.000000 1.000000 -0.000000
vn -0.000000 1.000000 -0.000000
vn -0.000000 1.000000 0.000000
vn -1.000000 -0.000000 0.000000
vn -1.000000 -0.000000 0.000000
vn -1.000000 -0.000000 0.000000
vn -1.000000 -0.000000 0.000000
vn -1.000000 -0.000000 0.000000
vn -1.000000 -0.000000 0.000000
vn 1.000000 0.000000 0.000000
vn 1.000000 0.000000 0.000000
vn 1.000000 0.000000 0.000000
vn 1.000000 0.000000 0.000000
vn 1.000000 0.000000 0.000000
vn 1.000000 0.000000 0.000000
vn 0.000000 1.000000 0.000000
vn 0.000000 1.000000 0.000000
vn 0.000000 1.000000 0.000000
vn 0.000000 1.000000 0.000000
vn 0.000000 1.000000 0.000000
vn 0.000000 1.000000 0.000000
vn -1.000000 0.000000 0.000000
vn -1.000000 0.000000 0.000000
vn -1.000000 0.000000 0.000000
vn -1.000000 0.000000 0.000000
vn -1.000000 0.000000 0.000000
vn -1.000000 0.000000 0.000000
vn 0.000000 -1.000000 0.000000
vn 0.000000 -1.000000 0.000000
vn 0.000000 -1.000000 0.000000
vn 0.000000 -1.000000 0.000000
vn 0.000000 -1.000000 0.000000
vn 0.000000 -1.000000 0.000000
vn 0.000000 0.000000 -1.000000
vn 0.000000 0.000000 -1.000000
vn 0.000000 0.000000 -1.000000
vn 0.000000 0.000000 -1.000000
vn 0.000000 0.000000 -1.000000
vn 0.000000 0.000000 -1.000000
vn 0.000000 -1.000000 -0.000001
vn 0.000000 -1.000000 -0.000000
vn 0.000000 -1.000000 0.000000
vn 0.000000 -1.000000 -0.000000
vn 0.000000 -1.000000 -0.000001
vn 0.000000 -1.000000 -0.000001
vn -0.000000 -0.000000 -1.000000
vn -0.000000 -0.000000 -1.000000
vn -0.000000 -0.000000 -1.000000
vn -0.000000 -0.000000 -1.000000
vn -0.000000 -0.000000 -1.000000
vn -0.000000 0.000000 -1.000000
vn 0.000000 0.000000 1.000000
vn 0.000000 0.000001 1.000000
vn 0.000000 0.000000 1.000000
vn 0.000000 0.000000 1.000000
vn 0.000000 0.000001 1.000000
vn 0.000000 0.000001 1.000000
vn 1.000000 0.000001 -0.000000
vn 1.000000 0.000000 -0.000000
vn 1.000000 0.000001 -0.000000
vn 1.000000 0.000001 -0.000000
vn 1.000000 0.000000 -0.000000
vn 1.000000 0.000000 -0.000000
vn -1.000000 0.000000 0.000000
vn -1.000000 -0.000000 0.000000
vn -1.000000 0.000000 0.000000
vn -1.000000 0.000000 0.000000
vn -1.000000 -0.000000 0.000000
vn -1.000000 -0.000000 0.000000
vn 0.000000 0.000000 1.000000
vn 0.000000 0.000000 1.000000
vn 0.000000 0.000000 1.000000
vn 0.000000 0.000000 1.000000
vn 0.000000 0.000000 1.000000
vn 0.000000 0.000000 1.000000
vn -0.000000 -0.000001 -1.000000
vn -0.000000 -0.000000 -1.000000
vn -0.000000 -0.000001 -1.000000
vn -0.000000 -0.000000 -1.000000
vn -0.000000 -0.000001 -1.000000
vn 0.000000 0.000000 -1.000000
vn -1.000000 -0.000000 0.000000
vn -1.000000 -0.000001 0.000000
vn -1.000000 -0.000001 0.000000
vn -1.000000 -0.000001 0.000000
vn -1.000000 0.000000 0.000000
vn -1.000000 -0.000000 0.000000
vn 1.000000 0.000000 -0.000000
vn 1.000000 -0.000001 -0.000000
vn 1.000000 -0.000001 -0.000000
vn 1.000000 -0.000001 -0.000000
vn 1.000000 0.000000 -0.000000
vn 1.000000 0.000000 -0.000000
vn -0.000000 0.000000 -1.000000
vn -0.000000 0.000000 -1.000000
vn -0.000000 0.000000 -1.000000
vn -0.000000 0.000000 -1.000000
vn -0.000000 0.000000 -1.000000
vn -0.000000 0.000000 -1.000000
vn 0.000000 0.000000 1.000000
vn 0.000000 0.000000 1.000000
vn 0.000000 0.000000 1.000000
vn 0.000000 0.000000 1.000000
vn 0.000000 0.000000 1.000000
vn 0.000000 0.000000 1.000000
vn 1.000000 0.000000 -0.000000
vn 1.000000 0.000000 -0.000000
vn 1.000000 0.000000 -0.000000
vn 1.000000 0.000000 -0.000000
vn 1.000000 0.000000 -0.000000
vn 1.000000 0.000000 -0.000000
vn 0.000000 1.000000 0.000000
vn 0.000000 1.000000 -0.000000
vn 0.000000 1.000000 -0.000000
vn 0.000000 1.000000 -0.000000
vn 0.000000 1.000000 0.000000
vn 0.000000 1.000000 0.000000
vn -1.000000 0.000000 0.000000
vn -1.000000 0.000000 0.000000
vn -1.000000 0.000000 0.000000
vn -1.000000 0.000000 0.000000
vn -1.000000 0.000000 0.000000
vn -1.000000 0.000000 0.000000
vn 0.000000 -1.000000 -0.000000
vn 0.000000 -1.000000 0.000000
vn 0.000000 -1.000000 0.000000
vn 0.000000 -1.000000 -0.000000
vn 0.000000 -1.000000 0.000000
vn 0.000000 -1.000000 -0.000000
vn 0.000000 -1.000000 0.000000
vn 0.000000 -1.000000 0.000002
vn 0.000000 -1.000000 0.000002
vn 0.000000 -1.000000 -0.000000
vn 0.000000 -1.000000 0.000002
vn 0.000000 -1.000000 0.000002
vn 0.000000 -1.000000 0.000000
vn 0.000000 -1.000000 0.000002
vn 0.000000 -1.000000 0.000000
vn 0.000000 -1.000000 0.000002
vn 0.000000 -1.000000 -0.000000
vn 0.000000 -1.000000 0.000000
vn 0.000000 -1.000000 -0.000002
vn 0.000000 -1.000000 0.000000
vn 0.000000 -1.000000 0.000000
vn 0.000000 -1.000000 -0.000000
vn 0.000000 -1.000000 -0.000002
vn 0.000000 -1.000000 0.000000
vn 0.000000 -1.000000 -0.000002
vn 0.000000 -1.000000 0.000000
vn 0.000000 -1.000000 -0.000002
vn 0.000000 -1.000000 -0.000000
vn 0.000000 -1.000000 -0.000002
vn 0.000000 -1.000000 -0.000002
vn -0.000003 1.000000 -0.000000
vn -0.000003 1.000000 -0.000004
vn -0.000003 1.000000 -0.000004
vn -0.000003 1.000000 0.000004
vn -0.000003 1.000000 -0.000004
vn -0.000003 1.000000 -0.000004
vn -0.000003 1.000000 -0.000000
vn -0.000003 1.000000 -0.000004
vn -0.000003 1.000000 -0.000000
vn -0.000003 1.000000 -0.000004
vn -0.000003 1.000000 0.000004
vn -0.000003 1.000000 0.000004
vn -0.000003 1.000000 -0.000004
vn -0.000003 1.000000 -0.000000
vn -0.000003 1.000000 -0.000000
vn -0.000003 1.000000 -0.000004
vn -0.000003 1.000000 0.000004
vn -0.000003 1.000000 0.000004
vn -0.000003 1.000000 -0.000004
vn -0.000003 1.000000 -0.000000
vn -0.000003 1.000000 -0.000004
vn -0.000003 1.000000 0.000004
vn -0.000003 1.000000 -0.000004
vn -0.000003 1.000000 -0.000004
vn 0.000000 -1.000000 -0.000002
vn 0.000000 -1.000000 -0.000002
vn 0.000000 -1.000000 -0.000002
vn 0.000000 -1.000000 0.000002
vn 0.000000 -1.000000 -0.000002
vn 0.000000 -1.000000 -0.000002
vn 0.000000 -1.000000 -0.000002
vn 0.000000 -1.000000 -0.000002
vn 0.000000 -1.000000 -0.000002
vn 0.000000 -1.000000 0.000002
vn 0.000000 -1.000000 -0.000002
vn 0.000000 -1.000000 0.000002
vn 0.000000 -1.000000 0.000004
vn 0.000000 -1.000000 -0.000002
vn 0.000000 -1.000000 -0.000002
vn 0.000000 -1.000000 0.000004
vn 0.000000 -1.000000 0.000002
vn 0.000000 -1.000000 0.000002
vn 0.000000 -1.000000 -0.000002
vn 0.000000 -1.000000 0.000004
vn 0.000000 -1.000000 0.000005
vn 0.000000 -1.000000 0.000004
vn 0.000000 -1.000000 0.000002
vn 0.000000 -1.000000 0.000005
vn 0.000000 1.000000 0.000009
vn 0.000000 1.000000 0.000003
vn 0.000000 1.000000 0.000003
vn 0.000000 1.000000 -0.000003
vn 0.000000 1.000000 0.000003
vn 0.000000 1.000000 0.000003
vn 0.000000 1.000000 0.000009
vn 0.000000 1.000000 0.000003
vn 0.000000 1.000000 0.000009
vn 0.000000 1.000000 0.000003
vn 0.000000 1.000000 -0.000003
vn 0.000000 1.000000 -0.000003
vn 0.000000 1.000000 -0.000007
vn 0.000000 1.000000 0.000009
vn 0.000000 1.000000 0.000009
vn 0.000000 1.000000 -0.000007
vn 0.000000 1.000000 -0.000003
vn 0.000000 1.000000 -0.000003
vn 0.000000 1.000000 -0.000007
vn 0.000000 1.000000 0.000009
vn 0.000000 1.000000 -0.000007
vn 0.000000 1.000000 -0.000003
vn 0.000000 1.000000 -0.000007
vn 0.000000 1.000000 -0.000007
vn 0.000003 -1.000000 -0.000000
vn 0.000000 -1.000000 -0.000003
vn 0.000000 -1.000000 -0.000003
vn 0.000000 -1.000000 0.000002
vn 0.000000 -1.000000 -0.000003
vn 0.000000 -1.000000 -0.000003
vn 0.000000 -1.000000 -0.000003
vn 0.000003 -1.000000 -0.000000
vn 0.000003 -1.000000 -0.000000
vn 0.000000 -1.000000 0.000002
vn 0.000000 -1.000000 -0.000003
vn 0.000000 -1.000000 0.000002
vn 0.000003 -1.000000 -0.000000
vn 0.000003 -1.000000 -0.000000
vn 0.000003 -1.000000 -0.000000
vn 0.000003 -1.000000 -0.000000
vn 0.000000 -1.000000 0.000002
vn 0.000000 -1.000000 0.000002
vn 0.000003 -1.000000 -0.000000
vn 0.000003 -1.000000 -0.000000
vn 0.000003 -1.000000 -0.000000
vn 0.000000 -1.000000 0.000002
vn 0.000003 -1.000000 -0.000000
vn 0.000003 -1.000000 -0.000000
vn -0.000003 1.000000 -0.000000
vn -0.000000 1.000000 -0.000005
vn -0.000000 1.000000 -0.000005
vn -0.000000 1.000000 0.000000
vn -0.000000 1.000000 -0.000005
vn -0.000000 1.000000 -0.000005
vn -0.000003 1.000000 -0.000000
vn -0.000000 1.000000 -0.000005
vn -0.000003 1.000000 -0.000000
vn -0.000000 1.000000 -0.000005
vn -0.000000 1.000000 0.000000
vn 0.000000 1.000000 -0.000000
vn -0.000003 1.000000 0.000010
vn -0.000003 1.000000 -0.000000
vn -0.000003 1.000000 -0.000000
vn -0.000000 1.000000 0.000000
vn -0.000003 1.000000 0.000010
vn 0.000000 1.000000 -0.000000
vn -0.000003 1.000000 0.000010
vn -0.000003 1.000000 -0.000000
vn -0.000003 1.000000 0.000010
vn -0.000003 1.000000 0.000010
vn -0.000000 1.000000 0.000000
vn -0.000003 1.000000 0.000010
f 1//1 2//2 3//3
f 3//4 4//5 1//6
f 5//7 6//8 7//9
f 7//10 6//11 8//12
f 9//13 10//14 11//15
f 9//16 11//17 12//18
f 13//19 14//20 15//21
f 13//22 15//23 16//24
f 17//25 18//26 19//27
f 19//28 18//29 20//30
f 21//31 22//32 23//33
f 22//34 21//35 24//36
f 25//37 26//38 27//39
f 26//40 28//41 27//42
f 29//43 30//44 31//45
f 30//46 32//47 31//48
f 33//49 34//50 35//51
f 35//52 36//53 33//54
f 37//55 38//56 39//57
f 38//58 37//59 40//60
f 41//61 42//62 43//63
f 41//64 43//65 44//66
f 45//67 46//68 47//69
f 46//70 45//71 48//72
f 49//73 50//74 51//75
f 51//76 50//77 52//78
f 53//79 54//80 55//81
f 54//82 53//83 56//84
f 57//85 58//86 59//87
f 58//88 60//89 59//90
f 61//91 62//92 63//93
f 63//94 64//95 61//96
f 65//97 66//98 67//99
f 67//100 66//101 68//102
f 69//103 70//104 71//105
f 71//106 70//107 72//108
f 73//109 74//110 75//111
f 75//112 74//113 76//114
f 77//115 78//116 79//117
f 77//118 79//119 80//120
f 81//121 82//122 83//123
f 81//124 83//125 84//126
f 85//127 86//128 87//129
f 86//130 85//131 88//132
f 89//133 90//134 91//135
f 91//136 92//137 89//138
f 93//139 94//140 95//141
f 94//142 93//143 96//144
f 97//145 98//146 99//147
f 98//148 97//149 100//150
f 101//151 102//152 103//153
f 102//154 101//155 104//156
f 105//157 106//158 107//159
f 107//160 108//161 105//162
f 109//163 110//164 111//165
f 111//166 110//167 112//168
f 113//169 114//170 115//171
f 115//172 114//173 116//174
f 117//175 118//176 119//177
f 119//178 118//179 120//180
f 121//181 122//182 123//183
f 121//184 123//185 124//186
f 125//187 126//188 127//189
f 128//190 127//191 126//192
f 129//193 130//194 131//195
f 129//196 131//197 132//198
f 133//199 134//200 135//201
f 134//202 133//203 136//204
f 137//205 138//206 139//207
f 139//208 138//209 140//210
f 141//211 142//212 143//213
f 142//214 141//215 144//216
f 145//217 146//218 147//219
f 148//220 147//221 146//222
f 149//223 150//224 151//225
f 149//226 151//227 152//228
f 153//229 154//230 155//231
f 153//232 155//233 156//234
f 157//235 158//236 159//237
f 158//238 157//239 160//240
f 161//241 162//242 163//243
f 161//244 163//245 164//246
f 165//247 166//248 167//249
f 167//250 166//251 168//252
f 169//253 170//254 171//255
f 170//256 169//257 172//258
f 173//259 174//260 175//261
f 175//262 174//263 176//264
f 177//265 178//266 179//267
f 177//268 179//269 180//270
f 181//271 182//272 183//273
f 182//274 181//275 184//276
f 185//277 186//278 187//279
f 186//280 185//281 188//282
f 189//283 190//284 191//285
f 190//286 189//287 192//288
f 193//289 194//290 195//291
f 195//292 194//293 196//294
f 197//295 198//296 199//297
f 199//298 198//299 200//300
f 201//301 202//302 203//303
f 203//304 202//305 204//306
f 205//307 206//308 207//309
f 206//310 205//311 208//312
f 209//313 210//314 211//315
f 210//316 209//317 212//318
f 213//319 214//320 215//321
f 215//322 216//323 213//324
f 217//325 218//326 219//327
f 219//328 220//329 217//330
f 221//331 222//332 223//333
f 223//334 224//335 221//336
f 225//337 226//338 227//339
f 227//340 226//341 228//342
f 229//343 230//344 231//345
f 231//346 230//347 232//348
f 233//349 234//350 235//351
f 234//352 233//353 236//354
f 237//355 238//356 239//357
f 239//358 238//359 240//360
f 241//361 242//362 243//363
f 241//364 243//365 244//366
f 245//367 246//368 247//369
f 248//370 247//371 246//372
f 245//373 247//374 249//375
f 247//376 248//377 250//378
f 251//379 245//380 249//381
f 248//382 252//383 250//384
f 251//385 249//386 252//387
f 248//388 251//389 252//390
f 253//391 254//392 255//393
f 256//394 255//395 254//396
f 253//397 255//398 257//399
f 255//400 256//401 258//402
f 259//403 253//404 257//405
f 259//406 258//407 256//408
f 259//409 257//410 260//411
f 258//412 259//413 260//414
f 261//415 262//416 263//417
f 264//418 263//419 262//420
f 262//421 261//422 265//423
f 264//424 262//425 266//426
f 267//427 265//428 261//429
f 267//430 264//431 266//432
f 265//433 267//434 268//435
f 267//436 266//437 268//438
f 269//439 270//440 271//441
f 272//442 271//443 270//444
f 269//445 271//446 273//447
f 271//448 272//449 274//450
f 275//451 269//452 273//453
f 275//454 274//455 272//456
f 275//457 273//458 276//459
f 274//460 275//461 276//462
f 277//463 278//464 279//465
f 280//466 279//467 278//468
f 278//469 277//470 281//471
f 280//472 278//473 282//474
f 283//475 281//476 277//477
f 284//478 280//479 282//480
f 281//481 283//482 284//483
f 280//484 284//485 283//486
f 285//487 286//488 287//489
f 288//490 287//491 286//492
f 285//493 287//494 289//495
f 287//496 288//497 290//498
f 291//499 285//500 289//501
f 288//502 292//503 290//504
f 291//505 289//506 292//507
f 292//508 288//509 291//510
